PathFileType	4	(X/Y/Z)	c:/Users/goper/Files/vsCode/490R/osim_files/C15/C15_Static03.trc
DataRate	CameraRate	NumFrames	NumMarkers	Units                	OrigDataRate	OrigDataStartFrame	OrigNumFrames
250.00	250.00	4	36	mm	250.0	279	1115
                Frame#	Time	LPSIS			LASIS			LTH1			LTH2			LTH3			LTH4			LLFE			LMFE			LSH1			LSH2			LSH3			LSH4			LLMAL			LMMAL			LCAL			LMTP5			LTOE			LMTP1			RPSIS			RASIS			RTH1			RTH2			RTH3			RTH4			RLFE			RMFE			RSH1			RSH2			RSH3			RSH4			RLMAL			RMMAL			RCAL			RMTP1			RTOE			RMTP5		
		X1	Y1	Z1	X2	Y2	Z2	X3	Y3	Z3	X4	Y4	Z4	X5	Y5	Z5	X6	Y6	Z6	X7	Y7	Z7	X8	Y8	Z8	X9	Y9	Z9	X10	Y10	Z10	X11	Y11	Z11	X12	Y12	Z12	X13	Y13	Z13	X14	Y14	Z14	X15	Y15	Z15	X16	Y16	Z16	X17	Y17	Z17	X18	Y18	Z18	X19	Y19	Z19	X20	Y20	Z20	X21	Y21	Z21	X22	Y22	Z22	X23	Y23	Z23	X24	Y24	Z24	X25	Y25	Z25	X26	Y26	Z26	X27	Y27	Z27	X28	Y28	Z28	X29	Y29	Z29	X30	Y30	Z30	X31	Y31	Z31	X32	Y32	Z32	X33	Y33	Z33	X34	Y34	Z34	X35	Y35	Z35	X36	Y36	Z36

279	1.11200	-417.42465	1028.15540	400.47519	-254.99980	1008.36798	328.47531	-345.34549	634.46210	249.41910	-350.53784	587.17804	262.83279	-293.42508	637.41992	252.20349	-295.91718	592.10730	258.86536	-333.65015	499.87131	275.95206	-328.68671	476.40479	395.00473	-405.21442	396.02777	258.66278	-408.41071	353.57281	249.51897	-343.77002	387.86050	255.71638	-354.77274	344.97614	246.90393	-402.41821	84.99772	288.51086	-382.39658	104.09071	379.31253	-463.62152	58.21814	331.75427	-280.83978	35.92265	263.23224	-224.43596	58.68486	326.38855	-260.26276	38.81267	381.69135	-410.84543	1028.60046	520.43555	-253.75824	1002.45691	582.60437	-329.38324	641.94110	651.41803	-330.35056	595.10028	645.89783	-270.00333	636.15906	637.75507	-279.13297	590.19598	637.14368	-327.96851	497.05133	623.54883	-345.40936	473.64456	507.45663	-418.60641	400.35010	648.76343	-421.10541	357.29626	656.03973	-357.15485	388.64679	650.68640	-369.66373	348.68668	658.62476	-416.23428	84.69344	616.57928	-386.86929	102.85243	528.73370	-476.87445	58.71177	572.39136	-273.45801	37.47825	534.77197	-239.16188	55.57776	588.42279	-299.49695	30.95195	653.96478
280	1.11600	-417.44604	1028.16248	400.46991	-254.99423	1008.36871	328.45676	-345.36133	634.46387	249.41495	-350.58224	587.17194	262.82031	-293.40408	637.42542	252.19449	-295.89847	592.12000	258.84225	-333.67374	499.86908	275.95700	-328.73407	476.40411	394.97083	-405.22278	396.01337	258.66797	-408.41479	353.57233	249.49435	-343.77991	387.84692	255.70894	-354.75943	345.00253	246.88867	-402.41364	84.99473	288.51001	-382.42795	104.08371	379.30762	-463.61243	58.26423	331.70016	-280.82547	35.91806	263.23492	-224.44017	58.67105	326.37442	-260.26465	38.80330	381.68527	-410.87308	1028.61450	520.40430	-253.73763	1002.47650	582.57489	-329.40170	641.95068	651.40283	-330.37448	595.13062	645.88116	-269.99194	636.18396	637.72986	-279.13315	590.19189	637.10974	-327.96213	497.09094	623.52393	-345.41516	473.64029	507.45813	-418.61731	400.37872	648.76007	-421.12543	357.33344	656.01624	-357.48233	388.54001	650.57178	-369.66641	348.68219	658.60370	-416.22604	84.72240	616.55841	-386.86050	102.86037	528.73523	-476.91901	58.73525	572.37860	-273.47208	37.47168	534.75696	-239.16789	55.56630	588.41260	-299.49893	30.96346	653.96832
281	1.12000	-417.45007	1028.17041	400.48486	-255.02148	1008.35968	328.45828	-345.35162	634.46722	249.41042	-350.59012	587.14368	262.82831	-293.42578	637.41479	252.18033	-295.96289	592.12335	258.94287	-333.64804	499.86972	275.93921	-328.75464	476.42694	394.97137	-405.19107	395.98050	258.66196	-408.41968	353.58365	249.50392	-343.77890	387.82550	255.69275	-354.77231	344.97864	246.89397	-402.42770	84.97892	288.51190	-382.43872	104.09599	379.32013	-463.64377	58.28306	331.65427	-280.83655	35.91413	263.24261	-224.45341	58.66214	326.39722	-260.29221	38.80245	381.70731	-410.85416	1028.61914	520.42023	-253.74515	1002.48505	582.59174	-329.52670	641.93567	651.35693	-330.38297	595.13196	645.87744	-270.00742	636.16840	637.72589	-279.15488	590.18713	637.10217	-327.99185	497.08395	623.55597	-345.52252	473.44739	507.39871	-418.65552	400.36206	648.76044	-421.14194	357.36169	656.00970	-357.49768	388.51428	650.59753	-369.67078	348.69714	658.61273	-416.27966	84.69331	616.56549	-386.86581	102.84592	528.74188	-476.92468	58.74046	572.39362	-273.35046	37.62587	534.85413	-239.19788	55.55304	588.41577	-299.49832	30.95397	653.97040
282	1.12400	-417.46289	1028.20056	400.47159	-255.02245	1008.37952	328.43109	-345.34201	634.45435	249.41451	-350.58987	587.12262	262.83572	-293.42773	637.42749	252.17345	-296.17273	592.03546	259.02924	-333.66663	499.86267	275.93994	-328.76685	476.46951	394.94684	-405.21237	395.96097	258.66660	-408.42807	353.57626	249.48958	-343.80972	387.81671	255.67328	-354.78888	344.98389	246.86943	-402.45041	84.98965	288.51962	-382.41428	104.09183	379.31351	-463.61310	58.26310	331.63809	-280.83057	35.91146	263.24515	-224.45697	58.67246	326.38718	-260.28778	38.79177	381.70416	-410.83340	1028.62830	520.42725	-253.72089	1002.47595	582.57568	-329.53363	641.96246	651.37085	-330.34830	595.04095	645.94629	-270.00418	636.18073	637.73792	-279.16357	590.18231	637.10852	-328.00586	497.12140	623.50226	-345.53238	473.44653	507.42587	-418.64795	400.38608	648.77423	-421.13025	357.37668	656.00189	-357.16040	388.67542	650.66608	-369.67358	348.70932	658.60199	-416.29221	84.74104	616.58575	-386.86621	102.86520	528.74902	-476.87909	58.71156	572.42657	-273.38327	37.63420	534.83862	-239.18800	55.54597	588.40161	-299.52271	30.96204	653.96326
